<?xml version="1.0" encoding="utf-8"?>
<!-- Generator: Adobe Illustrator 14.0.0, SVG Export Plug-In . SVG Version: 6.00 Build 43363)  -->
<!DOCTYPE svg PUBLIC "-//W3C//DTD SVG 1.1//EN" "http://www.w3.org/Graphics/SVG/1.1/DTD/svg11.dtd">
<svg version="1.1"
	 id="svg2" xmlns:rdf="http://www.w3.org/1999/02/22-rdf-syntax-ns#" xmlns:svg="http://www.w3.org/2000/svg" xmlns:inkscape="http://www.inkscape.org/namespaces/inkscape" xmlns:dc="http://purl.org/dc/elements/1.1/" xmlns:sodipodi="http://sodipodi.sourceforge.net/DTD/sodipodi-0.dtd" xmlns:cc="http://creativecommons.org/ns#" inkscape:version="0.48.1 r9760" sodipodi:docname="Neues Dokument 1"
	 xmlns="http://www.w3.org/2000/svg" xmlns:xlink="http://www.w3.org/1999/xlink" x="0px" y="0px" width="686.5px" height="404px"
	 viewBox="-26.362 93.445 686.5 404" enable-background="new -26.362 93.445 686.5 404" xml:space="preserve">
<sodipodi:namedview  id="base" inkscape:window-maximized="1" inkscape:zoom="1.4142136" pagecolor="#ffffff" inkscape:pageshadow="2" bordercolor="#666666" inkscape:pageopacity="0.0" borderopacity="1.0" showgrid="false" inkscape:current-layer="layer1" inkscape:window-width="1280" inkscape:window-x="0" inkscape:window-y="24" inkscape:cy="734.59618" inkscape:window-height="776" inkscape:document-units="px" inkscape:cx="389.7608">
	</sodipodi:namedview>
<g id="layer1_1_" inkscape:label="Ebene 1" inkscape:groupmode="layer">
	<polygon fill="#333333" points="415.513,373.87 375.136,391.28 348.149,356.328 388.524,338.917 	"/>
	<polygon fill="#333333" points="355.401,429.67 391.75,437.682 416.761,374.689 380.414,366.676 	"/>
	<polygon fill="#333333" points="380.692,455.51 356.913,439.356 373.493,422.627 397.272,438.782 	"/>
	<polygon fill="#333333" points="415.188,441.161 379.743,440.717 379.354,458.108 414.8,458.551 	"/>
	<path fill="#8C1B1B" d="M339.896,213.157c0,0-18.17,2.752-9.357,8.885c8.812,6.133,46.926,13.519,59.003,21.547
		c12.079,8.028,22.442,28.372,22.442,28.372l-7.49,30.58l7.248-40.122c0,0,15.32-3.436,18.481-6.532s-13.118-15.476-13.118-15.476
		L339.896,213.157z"/>
	<path fill="#C1272D" d="M327.998,219.469l5.04,18.832c0,0,31.068,4.011,43.199,18.084c12.129,14.073,12.766,43.666,12.766,43.666
		l16.014,4.211c0,0,21.742-49.932-23.515-64.666C336.245,224.864,327.998,219.469,327.998,219.469z"/>
	<path fill="#808080" d="M333.038,238.301c0,0-18.271,3.62-20.723,21.523c-2.452,17.903,14.49,66.236,11.043,74.434
		c-3.449,8.196-7.08,13.977-7.08,13.977l46.241,7.432l38.097,6.123c0,0,3.544-56.562,6.025-67.639
		C409.122,283.074,400.024,249.671,333.038,238.301z"/>
	<g>
		<path fill="#C69C6D" d="M434.688,224.217c0.148-0.923,0.203-1.836,0.213-2.745c6.038-17.015,7.133-39.277,5.804-62.714
			c-2.864-50.443-44.818-60.195-70.721-50.275c-30.172,11.555-51.707,37.314-42.378,80.23
			c10.107,46.505,41.904,46.287,85.061,63.817c8.693,3.531,9.43-9.043,14.624-16.173c-0.019-0.013-0.035-0.027-0.054-0.039
			C431.083,233.542,433.874,229.287,434.688,224.217z"/>
		<path fill="#C69C6D" d="M437.331,145.453c0,0,30.492,51.234,20.889,61.815c-9.605,10.582-31.836,6.295-31.836,6.295"/>
	</g>
	<path id="path3770_1_" sodipodi:nodetypes="cccc" inkscape:connector-curvature="0" fill="#534741" d="M404.248,124.539
		c-3.382-0.149-0.188,8.142-0.188,8.142s22.888,7.836,33.106,7.886C430.546,133.31,407.63,124.688,404.248,124.539z"/>
	<path fill="#534741" d="M348.029,171.994c1.433-8.91,9.577-15.011,18.192-13.626c0.111,0.018,0.217,0.05,0.328,0.07
		c-2.275-2.907-5.381-4.934-9.025-5.52c-8.724-1.402-17.155,5.915-18.832,16.344c-1.676,10.429,4.038,20.02,12.763,21.422
		c2.396,0.385,4.763,0.093,6.98-0.721C351.288,187.482,346.747,179.973,348.029,171.994z"/>
	<circle fill="#FFFFFF" stroke="#F2F2F2" stroke-width="2" cx="420.612" cy="155.978" r="14.769"/>
	<circle fill="#0071BC" cx="424.561" cy="156.613" r="9"/>
	<circle cx="424.589" cy="156.436" r="4.75"/>
	<path fill="#534741" d="M428.409,220.514c6.881-0.76,13.234,5.655,14.192,14.329c0.013,0.113,0.013,0.223,0.022,0.334
		c1.617-2.901,2.396-6.396,1.99-10.064c-0.969-8.783-8.283-15.183-16.338-14.295c-8.053,0.888-13.797,8.729-12.828,17.512
		c0.267,2.412,1.023,4.632,2.131,6.584C417.765,227.398,422.247,221.194,428.409,220.514z"/>
	<polygon fill="#666666" points="382.236,386.708 316.027,372.466 328.196,341.445 394.405,355.687 	"/>
	<polygon fill="#666666" points="281.147,404.796 316.021,426.206 360.755,377.764 325.882,356.355 	"/>
	<polygon fill="#333333" points="297.047,439.069 269.262,431.698 279.369,410.421 307.155,417.793 	"/>
	<polygon fill="#333333" points="329.182,438.127 293.737,437.682 293.347,455.075 328.793,455.52 	"/>
	<polygon fill="#C69C6D" points="415.5,317.116 424.488,309.313 445.255,321.898 437.034,345.69 419.599,342.888 408.809,338.497 	
		"/>
	<g>
		<path fill="#F2F2F2" d="M366.311,135.739c-2.785,1.227-5.456,2.762-7.964,4.587c-1.75-1.705-3.501-3.411-5.252-5.115
			c2.58-2.592,5.42-4.892,8.467-6.865C363.144,130.811,364.728,133.275,366.311,135.739z"/>
		<path fill="#F2F2F2" d="M376.653,132.689c-2.984,0.471-5.913,1.271-8.739,2.381c-1.53-2.605-3.06-5.211-4.589-7.817
			c3.124-1.846,6.445-3.361,9.91-4.511C374.374,126.058,375.515,129.374,376.653,132.689z"/>
		<path fill="#F2F2F2" d="M369.364,111.129c-4.063,1.947-7.874,4.311-11.375,7.039c1.543,2.626,3.086,5.254,4.629,7.882
			c3.197-1.978,6.608-3.614,10.181-4.872C371.653,117.829,370.509,114.479,369.364,111.129z"/>
		<path fill="#F2F2F2" d="M346.923,129.354c2.678-3.521,5.736-6.738,9.116-9.601c1.597,2.484,3.193,4.969,4.79,7.454
			c-3.113,2.105-6.001,4.545-8.609,7.285C350.454,132.78,348.688,131.068,346.923,129.354z"/>
	</g>
	<circle fill="#534741" cx="356.2" cy="177.379" r="4.125"/>
	<polygon fill="#534741" points="407.269,285.052 402.694,297.52 471.996,328.483 477.197,314.771 	"/>
	<path fill="#534741" d="M430.366,300.078c2.748-4.042,46.831-143.558,46.831-143.558l26.747-16.345l6.686,26.406l-65.596,141.002
		L430.366,300.078z"/>
	<ellipse fill="#534741" cx="424.59" cy="352.259" rx="5.396" ry="6.57"/>
</g>
<g>
	<ellipse fill="#333333" cx="537.126" cy="327.065" rx="40.988" ry="41.752"/>
	<path fill="#808080" d="M494.331,322.654c0,0,22.795-2.705,38.098,4.774c18.5,9.041,45.631,3.528,45.631,3.528l5.369,21.103
		l-14.156,44.894l-68.908-7.103C500.364,389.851,477.478,365.907,494.331,322.654z"/>
	<ellipse fill="#736357" cx="563.179" cy="319.539" rx="7.75" ry="11.685"/>
	
		<ellipse transform="matrix(0.9557 -0.2943 0.2943 0.9557 -66.4804 169.2785)" fill="#666666" cx="529.148" cy="305.505" rx="98.75" ry="14.392"/>
	<path fill="#999999" d="M573.897,287.096c0,0-47.979-54.529-73.877-47.114c-25.9,7.416-32.693,9.916-41.186,54.416
		s-3.162,117-3.162,117s8.682-83.5,28.637-93S556.366,302.738,573.897,287.096z"/>
	<path fill="#808080" d="M586.851,399.207c0,0,1.709,44.075-9.832,54.727c-11.539,10.652-145.641,0-145.641,0
		s58.76-26.316,58.76-83.14c0-23.494,0,0,0,0"/>
	<path fill="#006837" d="M590.683,374.627l18.246-46.293c0,0,6.5-15.381,20.5-9.881s13.5,9.667,11,16.083s-5,13.903-9,11.41
		s5-11.951,0.5-14.722s-3.117-6.491-8.309-5.881s-25.461,53.814-25.461,53.814"/>
	
		<rect x="569.628" y="400.238" transform="matrix(-0.9115 -0.4113 0.4113 -0.9115 921.6406 1053.2781)" fill="#006837" width="8.999" height="54.509"/>
	<polygon fill="#534741" points="571.897,376.493 580.886,368.69 601.653,381.275 593.433,405.066 575.997,402.265 565.206,397.874 
			"/>
</g>
<g id="layer1" inkscape:label="Ebene 1" inkscape:groupmode="layer">
	<path fill="#1A1A1A" d="M226.177,390.473c0,0,32.495,46.896,15.454,59.685c-17.04,12.791-145.696,23.91-162.719,18.883
		c-17.023-5.025,98.398-78.036,111.179-81.234C202.873,384.609,226.177,390.473,226.177,390.473z"/>
	<path fill="#1A1A1A" d="M125.637,243.275c0,0,24.333-9.343,44.994-4.303c20.661,5.04,23.997,37.425,23.997,37.425
		S126.661,264.025,125.637,243.275z"/>
	<path id="path2985" sodipodi:nodetypes="sssss" inkscape:connector-curvature="0" fill="#C69C6D" d="M230.12,198.798
		c-2.854,39.696-12.813,74.778-41.769,79.109c-28.956,4.331-61.624-43.241-67.51-82.602c-5.888-39.36,17.305-55.169,46.191-59.935
		C216.452,127.219,233.404,153.131,230.12,198.798L230.12,198.798z"/>
	<path fill="#006837" d="M125.637,243.275c0,0,15.394,19.333,46.002,24.38s56.699-2.905,57.579,10.663
		c0.879,13.568,6.812,126.75,6.812,126.75c-116.108,0-81.084,67.711-164.172,64.206c-48.862-2.062,34.773-50.671,35.78-85.808
		C108.646,348.327,125.637,243.275,125.637,243.275z"/>
	<g>
		
			<path id="path3760_1_" sodipodi:cx="430.57751" sodipodi:type="arc" sodipodi:rx="13.889598" sodipodi:ry="21.213203" sodipodi:cy="207.36958" fill="#FFFFFF" d="
			M245.393,189.117c-0.685,8.747-4.061,16.099-7.541,16.42c-3.479,0.322-5.745-6.508-5.061-15.255
			c0.002-0.012,0.002-0.025,0.004-0.038c0.685-8.747,4.061-16.099,7.54-16.42c3.479-0.321,5.746,6.508,5.061,15.254
			C245.396,189.091,245.395,189.104,245.393,189.117z"/>
		
			<path id="path3766_1_" sodipodi:cx="343.45187" sodipodi:type="arc" sodipodi:rx="4.0406103" sodipodi:ry="4.7982244" sodipodi:cy="231.86578" fill="#009245" d="
			M245.187,188.504c-0.422,4.935-2.609,9.142-4.887,9.399c-2.276,0.257-3.78-3.534-3.357-8.467c0-0.011,0.001-0.022,0.002-0.032
			c0.421-4.934,2.608-9.142,4.887-9.399c2.275-0.257,3.779,3.534,3.358,8.467C245.188,188.483,245.188,188.495,245.187,188.504z"/>
		
			<path id="path3768_1_" sodipodi:cx="369.96838" sodipodi:type="arc" sodipodi:rx="2.7779195" sodipodi:ry="2.5253813" sodipodi:cy="223.53201" fill="#333333" d="
			M244.777,187.819c-0.049,2.251-0.909,4.516-1.922,5.059c-1.014,0.543-1.795-0.842-1.747-3.092l0,0
			c0.048-2.251,0.908-4.516,1.921-5.059C244.042,184.185,244.825,185.568,244.777,187.819z"/>
	</g>
	
		<path id="path3758" sodipodi:cx="419.46585" sodipodi:type="arc" sodipodi:rx="12.374369" sodipodi:ry="12.121831" sodipodi:cy="256.86707" fill="#C69C6D" d="
		M250.749,213.757c4.826,12.905,2.149,25.832-5.98,28.872c-8.129,3.041-18.631-4.958-23.458-17.863
		c-4.826-12.906-2.149-25.832,5.979-28.872C235.419,192.854,245.922,200.852,250.749,213.757z"/>
	
		<path id="path3760" sodipodi:cx="430.57751" sodipodi:type="arc" sodipodi:rx="13.889598" sodipodi:ry="21.213203" sodipodi:cy="207.36958" fill="#FFFFFF" d="
		M234.616,194.686c-0.744,8.875-6.489,15.363-12.832,14.491c-6.343-0.871-10.882-8.772-10.139-17.647
		c0.001-0.013,0.002-0.026,0.004-0.039c0.743-8.875,6.488-15.363,12.832-14.491c6.342,0.871,10.882,8.772,10.139,17.647
		C234.619,194.659,234.617,194.672,234.616,194.686z"/>
	
		<path id="path3766" sodipodi:cx="343.45187" sodipodi:type="arc" sodipodi:rx="4.0406103" sodipodi:ry="4.7982244" sodipodi:cy="231.86578" fill="#009245" d="
		M234.204,193.977c-0.485,4.993-4.239,8.618-8.388,8.097c-4.147-0.521-7.117-4.993-6.634-9.987c0.003-0.011,0.004-0.021,0.004-0.033
		c0.484-4.994,4.239-8.619,8.387-8.097c4.148,0.522,7.117,4.993,6.634,9.987C234.206,193.955,234.205,193.965,234.204,193.977z"/>
	
		<path id="path3768" sodipodi:cx="369.96838" sodipodi:type="arc" sodipodi:rx="2.7779195" sodipodi:ry="2.5253813" sodipodi:cy="223.53201" fill="#333333" d="
		M233.415,193.12c0.043,2.329-1.398,4.39-3.219,4.604c-1.82,0.215-3.331-1.499-3.373-3.827l0,0c-0.044-2.329,1.397-4.39,3.217-4.604
		C231.861,189.078,233.371,190.792,233.415,193.12z"/>
	<path id="path3770" sodipodi:nodetypes="cccc" inkscape:connector-curvature="0" fill="#E6E6E6" d="M207.453,149.606l1.466,15.55
		l33.593,12.98L207.453,149.606z"/>
	
		<path id="path3898" sodipodi:cx="275.125" sodipodi:type="arc" sodipodi:rx="5.625" sodipodi:ry="5.875" sodipodi:cy="264.23718" fill="#8C6239" d="
		M159.022,199.318c-0.696,2.352-3.087,3.718-5.338,3.051c-2.252-0.667-3.513-3.114-2.816-5.466l0,0
		c0.696-2.351,3.086-3.717,5.338-3.051C158.457,194.52,159.719,196.967,159.022,199.318L159.022,199.318z"/>
	<path fill="#E6E6E6" d="M208.877,230.736c31.768-13.265,29.568,22.544,31.073,30.207c1.504,7.662-30.03,76.062-38.774,86.695
		C192.43,358.271,190.166,238.549,208.877,230.736z"/>
	<path fill="#E6E6E6" d="M205.173,231.863c27.771-19.836,34.16,15.511,37.451,22.644s-11.119,80.604-17.102,92.861
		C219.54,359.628,188.815,243.546,205.173,231.863z"/>
	<path id="path3770_2_" sodipodi:nodetypes="cccc" inkscape:connector-curvature="0" fill="#E6E6E6" d="M256.478,153.117
		l-0.767,14.118l-26.493,5.14L256.478,153.117z"/>
	<path id="path3815" inkscape:connector-curvature="0" fill="#8C6239" d="M151.087,173.435c-10.501-3.109-21.519,2.9-24.628,13.402
		c-3.109,10.501,2.87,21.509,13.37,24.619c5.292,1.566,10.701,0.822,15.181-1.645c-2.133,0.296-4.361,0.192-6.556-0.458
		c-8.322-2.464-13.04-11.292-10.546-19.713c2.493-8.421,11.257-13.256,19.578-10.792c1.387,0.411,2.667,0.99,3.837,1.722
		C158.854,177.266,155.347,174.695,151.087,173.435L151.087,173.435z"/>
	<path fill="#2E3192" d="M222.577,144.358c5.452-4.932-13.075-26.052-28.506-26.579c-15.43-0.527-71.623,0.77-81.573,26.579
		c-9.951,25.809-22.046,72.202-15.999,78.738c6.048,6.536,30.959,6.512,28.582-4.563c-2.377-11.074-4.393-40.374,8.71-44.118
		S222.577,144.358,222.577,144.358z"/>
	<path fill="#CCCCCC" d="M175.218,124.072c0,0-91.561-25.369-115.603,7.725S166.701,124.576,175.218,124.072z"/>
	<ellipse fill="#534741" cx="175.218" cy="442.062" rx="33.319" ry="24.691"/>
	<ellipse fill="#736357" cx="221.768" cy="442.062" rx="33.319" ry="24.691"/>
	
		<path id="path3878" sodipodi:cx="448.30569" sodipodi:type="arc" sodipodi:rx="26.870058" sodipodi:ry="24.748737" sodipodi:cy="508.59708" fill="#C69C6D" d="
		M234.94,338.919c0.003,14.227-11.812,25.761-26.395,25.765c-14.583,0.006-26.407-11.522-26.411-25.75c0-0.005,0-0.01,0-0.015
		c-0.006-14.227,11.811-25.764,26.394-25.769c14.581-0.006,26.406,11.524,26.412,25.75
		C234.94,338.906,234.94,338.912,234.94,338.919z"/>
	<ellipse fill="#FBB03B" cx="174.159" cy="126.423" rx="6.047" ry="5.375"/>
</g>
</svg>
