<?xml version="1.0" encoding="UTF-8" standalone="no"?>
<!-- Created with Inkscape (http://www.inkscape.org/) -->

<svg
   xmlns:dc="http://purl.org/dc/elements/1.1/"
   xmlns:cc="http://creativecommons.org/ns#"
   xmlns:rdf="http://www.w3.org/1999/02/22-rdf-syntax-ns#"
   xmlns:svg="http://www.w3.org/2000/svg"
   xmlns="http://www.w3.org/2000/svg"
   xmlns:sodipodi="http://sodipodi.sourceforge.net/DTD/sodipodi-0.dtd"
   xmlns:inkscape="http://www.inkscape.org/namespaces/inkscape"
   width="1024"
   height="512"
   id="svg2"
   version="1.1"
   inkscape:version="0.48.1 r9760"
   sodipodi:docname="weapons.svg">
  <defs
     id="defs4" />
  <sodipodi:namedview
     id="base"
     pagecolor="#ffffff"
     bordercolor="#666666"
     borderopacity="1.0"
     inkscape:pageopacity="0.0"
     inkscape:pageshadow="2"
     inkscape:zoom="1"
     inkscape:cx="454.27291"
     inkscape:cy="366.76686"
     inkscape:document-units="px"
     inkscape:current-layer="layer1"
     showgrid="true"
     showguides="true"
     inkscape:guide-bbox="true"
     inkscape:window-width="1280"
     inkscape:window-height="776"
     inkscape:window-x="0"
     inkscape:window-y="24"
     inkscape:window-maximized="1">
    <inkscape:grid
       type="xygrid"
       id="grid2985"
       empspacing="8"
       visible="true"
       enabled="true"
       snapvisiblegridlinesonly="true" />
    <sodipodi:guide
       orientation="0,1"
       position="512,256"
       id="guide2987" />
    <sodipodi:guide
       orientation="1,0"
       position="512,256"
       id="guide2989" />
    <sodipodi:guide
       orientation="1,0"
       position="256,256"
       id="guide2991" />
    <sodipodi:guide
       orientation="1,0"
       position="768,256"
       id="guide2993" />
    <sodipodi:guide
       orientation="0,1"
       position="512,384"
       id="guide3079" />
    <sodipodi:guide
       orientation="0,1"
       position="512,128"
       id="guide3081" />
    <sodipodi:guide
       orientation="1,0"
       position="128,256"
       id="guide3083" />
    <sodipodi:guide
       orientation="1,0"
       position="64,256"
       id="guide3853" />
    <sodipodi:guide
       orientation="1,0"
       position="192,384"
       id="guide3912" />
    <sodipodi:guide
       orientation="1,0"
       position="384,256"
       id="guide3916" />
    <sodipodi:guide
       orientation="1,0"
       position="320,256"
       id="guide3918" />
    <sodipodi:guide
       orientation="1,0"
       position="448,256"
       id="guide3991" />
    <sodipodi:guide
       orientation="1,0"
       position="640,256"
       id="guide4140" />
    <sodipodi:guide
       orientation="1,0"
       position="576,256"
       id="guide4142" />
  </sodipodi:namedview>
  <metadata
     id="metadata7">
    <rdf:RDF>
      <cc:Work
         rdf:about="">
        <dc:format>image/svg+xml</dc:format>
        <dc:type
           rdf:resource="http://purl.org/dc/dcmitype/StillImage" />
        <dc:title />
      </cc:Work>
    </rdf:RDF>
  </metadata>
  <g
     inkscape:label="Ebene 1"
     inkscape:groupmode="layer"
     id="layer1"
     transform="translate(0,-540.36218)">
    <path
       style="fill:#757575;stroke:none"
       d="m 453,102 0,-20 43,0 c 4.65942,11.053791 2.96981,24.30532 0,38 -15,-19 -17,-19 -43,-18 z"
       id="path3997"
       inkscape:connector-curvature="0"
       transform="translate(0,540.36218)"
       sodipodi:nodetypes="ccccc" />
    <path
       style="fill:#757575;stroke:none;stroke-width:1px;stroke-linecap:butt;stroke-linejoin:miter;stroke-opacity:1;fill-opacity:1"
       d="m 64,16 -16,32 8,112 16,0 8,-112 z"
       id="path3855"
       inkscape:connector-curvature="0"
       transform="translate(0,540.36218)"
       sodipodi:nodetypes="cccccc"
       inkscape:export-filename="/home/thomas/Dropbox/Photos/WIPs/simplesword1.png"
       inkscape:export-xdpi="545.45453"
       inkscape:export-ydpi="545.45453" />
    <path
       style="fill:#994a13;fill-opacity:1;stroke:#63310e;stroke-opacity:1"
       d="M 62 167 C 60.892 167 60 167.669 60 168.5 C 60 168.88792 60.211256 169.23426 60.53125 169.5 C 60.211256 169.76574 60 170.11208 60 170.5 C 60 170.88792 60.211256 171.23426 60.53125 171.5 C 60.211256 171.76574 60 172.11208 60 172.5 C 60 172.88792 60.211256 173.23426 60.53125 173.5 C 60.211256 173.76574 60 174.11208 60 174.5 C 60 174.88792 60.211256 175.23426 60.53125 175.5 C 60.211256 175.76574 60 176.11208 60 176.5 C 60 176.88792 60.211256 177.23426 60.53125 177.5 C 60.211256 177.76574 60 178.11208 60 178.5 C 60 178.88792 60.211256 179.23426 60.53125 179.5 C 60.211256 179.76574 60 180.11208 60 180.5 C 60 180.88792 60.211256 181.23426 60.53125 181.5 C 60.211256 181.76574 60 182.11208 60 182.5 C 60 182.88792 60.211256 183.23426 60.53125 183.5 C 60.211256 183.76574 60 184.11208 60 184.5 C 60 184.88792 60.211256 185.23426 60.53125 185.5 C 60.211256 185.76574 60 186.11208 60 186.5 C 60 186.88792 60.211256 187.23426 60.53125 187.5 C 60.211256 187.76574 60 188.11208 60 188.5 C 60 188.88792 60.211256 189.23426 60.53125 189.5 C 60.211256 189.76574 60 190.11208 60 190.5 C 60 191.331 60.892 192 62 192 L 66 192 C 67.108 192 68 191.331 68 190.5 C 68 190.11208 67.788744 189.76574 67.46875 189.5 C 67.788744 189.23426 68 188.88792 68 188.5 C 68 188.11208 67.788744 187.76574 67.46875 187.5 C 67.788744 187.23426 68 186.88792 68 186.5 C 68 186.11208 67.788744 185.76574 67.46875 185.5 C 67.788744 185.23426 68 184.88792 68 184.5 C 68 184.11208 67.788744 183.76574 67.46875 183.5 C 67.788744 183.23426 68 182.88792 68 182.5 C 68 182.11208 67.788744 181.76574 67.46875 181.5 C 67.788744 181.23426 68 180.88792 68 180.5 C 68 180.11208 67.788744 179.76574 67.46875 179.5 C 67.788744 179.23426 68 178.88792 68 178.5 C 68 178.11208 67.788744 177.76574 67.46875 177.5 C 67.788744 177.23426 68 176.88792 68 176.5 C 68 176.11208 67.788744 175.76574 67.46875 175.5 C 67.788744 175.23426 68 174.88792 68 174.5 C 68 174.11208 67.788744 173.76574 67.46875 173.5 C 67.788744 173.23426 68 172.88792 68 172.5 C 68 172.11208 67.788744 171.76574 67.46875 171.5 C 67.788744 171.23426 68 170.88792 68 170.5 C 68 170.11208 67.788744 169.76574 67.46875 169.5 C 67.788744 169.23426 68 168.88792 68 168.5 C 68 167.669 67.108 167 66 167 L 62 167 z "
       transform="translate(0,540.36218)"
       id="rect3859"
       inkscape:export-filename="/home/thomas/Dropbox/Photos/WIPs/simplesword1.png"
       inkscape:export-xdpi="545.45453"
       inkscape:export-ydpi="545.45453" />
    <path
       sodipodi:type="arc"
       style="fill:#d7c413;fill-opacity:1;stroke:#9e900e"
       id="path3883"
       sodipodi:cx="64"
       sodipodi:cy="195.5"
       sodipodi:rx="4"
       sodipodi:ry="3.5"
       d="m 68,195.5 c 0,1.933 -1.790861,3.5 -4,3.5 -2.209139,0 -4,-1.567 -4,-3.5 0,-1.933 1.790861,-3.5 4,-3.5 2.209139,0 4,1.567 4,3.5 z"
       transform="matrix(1.25,0,0,1.4285694,-16,457.07686)"
       inkscape:export-filename="/home/thomas/Dropbox/Photos/WIPs/simplesword1.png"
       inkscape:export-xdpi="545.45453"
       inkscape:export-ydpi="545.45453" />
    <path
       style="fill:none;stroke:#212121;stroke-width:1px;stroke-linecap:butt;stroke-linejoin:miter;stroke-opacity:1"
       d="M 56,160 48,48 64,16 80,48 72,160"
       id="path3885"
       inkscape:connector-curvature="0"
       transform="translate(0,540.36218)"
       inkscape:export-filename="/home/thomas/Dropbox/Photos/WIPs/simplesword1.png"
       inkscape:export-xdpi="545.45453"
       inkscape:export-ydpi="545.45453" />
    <path
       style="fill:none;stroke:#212121;stroke-width:1px;stroke-linecap:round;stroke-linejoin:miter;stroke-opacity:1;fill-opacity:1"
       d="M 64,160 64,48"
       id="path3887"
       inkscape:connector-curvature="0"
       transform="translate(0,540.36218)"
       inkscape:export-filename="/home/thomas/Dropbox/Photos/WIPs/simplesword1.png"
       inkscape:export-xdpi="545.45453"
       inkscape:export-ydpi="545.45453" />
    <rect
       style="fill:#d7c413;fill-opacity:1;stroke:#9e900e;stroke-opacity:1"
       id="rect3857"
       width="32"
       height="8"
       x="48"
       y="699.36218"
       rx="4"
       ry="4"
       inkscape:export-filename="/home/thomas/Dropbox/Photos/WIPs/simplesword1.png"
       inkscape:export-xdpi="545.45453"
       inkscape:export-ydpi="545.45453" />
    <path
       style="fill:#923e18;stroke:#381809;stroke-width:1px;stroke-linecap:butt;stroke-linejoin:miter;stroke-opacity:1;fill-opacity:1"
       d="m 186,789.36218 2,-176 -16,-32 16,-32 32,0 8,32 -16,16 -16,-8 0,-16 15,15 7,-8 -4,-21 -20,1 -13,21 16,32 1,176 z"
       id="path3914"
       inkscape:connector-curvature="0"
       sodipodi:nodetypes="ccccccccccccccccc"
       inkscape:export-filename="/home/thomas/Dropbox/Photos/WIPs/simplestaff1.png"
       inkscape:export-xdpi="300"
       inkscape:export-ydpi="300" />
    <path
       style="fill:#923e18;stroke:#381809;stroke-width:1px;stroke-linecap:butt;stroke-linejoin:miter;stroke-opacity:1"
       d="m 317,216 9,0 -6,-40 4,-40 -2,-28 -4,0 2,28 -6,40 z"
       id="path3920"
       inkscape:connector-curvature="0"
       transform="translate(0,540.36218)"
       sodipodi:nodetypes="ccccccccc" />
    <path
       sodipodi:type="star"
       style="fill:#eaea0e;fill-opacity:1;stroke:#eaa50e;stroke-width:2;stroke-linecap:round;stroke-miterlimit:4;stroke-opacity:1;stroke-dasharray:none"
       id="path3924"
       sodipodi:sides="5"
       sodipodi:cx="384"
       sodipodi:cy="32"
       sodipodi:r1="28.84441"
       sodipodi:r2="11.24932"
       sodipodi:arg1="0.98279372"
       sodipodi:arg2="1.5707963"
       inkscape:flatsided="false"
       inkscape:rounded="0"
       inkscape:randomized="0"
       d="m 400,56 -16,-12.75068 -17.88108,11.383992 7.18234,-19.157081 -16.35238,-13.488075 20.43894,0.910953 7.77475,-19.7200806 5.44961,19.7200806 21.15745,1.300395 -17.07089,11.276727 z"
       transform="matrix(0.90708714,0,0,0.90534063,-28.319289,612.63069)"
       inkscape:transform-center-x="-0.32587965"
       inkscape:transform-center-y="-2.1823058" />
    <path
       style="fill:#923e18;stroke:#381809;stroke-width:1.07614505px;stroke-linecap:butt;stroke-linejoin:miter;stroke-opacity:1"
       d="m 443,756.36218 10,0 -1.25,-144 -7.5,0 z"
       id="path3993"
       inkscape:connector-curvature="0"
       sodipodi:nodetypes="ccccc" />
    <path
       sodipodi:nodetypes="ccccc"
       inkscape:connector-curvature="0"
       id="use3999"
       d="m 489.01564,622.36218 6.98436,0 c 4.65942,11.05379 2.96981,24.30532 0,38 -2.69293,-3.41104 -4.96686,-6.20971 -7.03589,-8.50015 1.374,-9.61905 2.58182,-19.26433 0.0515,-29.49985 z"
       style="fill:#535353;fill-opacity:1;stroke:none" />
    <path
       sodipodi:nodetypes="ccccc"
       inkscape:connector-curvature="0"
       id="use4003"
       d="m 453,642.36218 0,-20 43,0 c 4.65942,11.05379 2.96981,24.30532 0,38 -15,-19 -17,-19 -43,-18 z"
       style="fill:none;fill-opacity:1;stroke:#212121;stroke-opacity:1" />
    <path
       style="fill:#757575;stroke:#212121;stroke-width:1px;stroke-linecap:butt;stroke-linejoin:miter;stroke-opacity:1"
       d="m 442,80 12,0 0,24 -12,0 z"
       id="path3995"
       inkscape:connector-curvature="0"
       transform="translate(0,540.36218)" />
    <path
       inkscape:export-ydpi="300"
       inkscape:export-xdpi="300"
       inkscape:export-filename="/home/thomas/Dropbox/Photos/WIPs/simplestaff1.png"
       sodipodi:nodetypes="ccccc"
       inkscape:connector-curvature="0"
       id="use4200"
       d="m 186,1042.3622 2,-190.00002 9,0 1,190.00002 z"
       style="fill:#923e18;fill-opacity:1;stroke:#381809;stroke-width:1px;stroke-linecap:butt;stroke-linejoin:miter;stroke-opacity:1" />
    <path
       style="fill:#db0000;fill-opacity:1;stroke:#ffbd0c;stroke-width:1px;stroke-linecap:butt;stroke-linejoin:miter;stroke-opacity:1"
       d="m 192,847.36218 16,-19 -8,-8 -16,0 -8,8 z"
       id="path4206"
       inkscape:connector-curvature="0" />
    <path
       style="fill:#757575;stroke:#212121;stroke-width:1px;stroke-linecap:butt;stroke-linejoin:miter;stroke-opacity:1"
       d="m 198,853.36218 -11,0 0,-9 11,0 z"
       id="path4204"
       inkscape:connector-curvature="0" />
    <path
       style="fill:none;stroke:#ffbd0c;stroke-width:1.03279555px;stroke-linecap:butt;stroke-linejoin:miter;stroke-opacity:1"
       d="m 176,828.36218 32,0"
       id="path4716"
       inkscape:connector-curvature="0" />
    <path
       style="fill:#757575;fill-opacity:1;stroke:none"
       d="m 64,812.36218 -16,32 8,112 16,0 8,-112 z"
       id="path3855-5"
       inkscape:connector-curvature="0"
       sodipodi:nodetypes="cccccc"
       inkscape:export-filename="/home/thomas/Dropbox/Photos/WIPs/simplesword1.png"
       inkscape:export-xdpi="545.45453"
       inkscape:export-ydpi="545.45453" />
    <path
       inkscape:connector-curvature="0"
       style="fill:#232323;fill-opacity:1;stroke:#0b0b0b;stroke-opacity:1"
       d="m 62,963.36218 c -1.108,0 -2,0.669 -2,1.5 0,0.38792 0.211256,0.73426 0.53125,1 -0.319994,0.26574 -0.53125,0.61208 -0.53125,1 0,0.38792 0.211256,0.73426 0.53125,1 -0.319994,0.26574 -0.53125,0.61208 -0.53125,1 0,0.38792 0.211256,0.73426 0.53125,1 -0.319994,0.26574 -0.53125,0.61208 -0.53125,1 0,0.38792 0.211256,0.73426 0.53125,1 -0.319994,0.26574 -0.53125,0.61208 -0.53125,1 0,0.38792 0.211256,0.73426 0.53125,1 -0.319994,0.26574 -0.53125,0.61208 -0.53125,1 0,0.38792 0.211256,0.73426 0.53125,1 -0.319994,0.26574 -0.53125,0.61208 -0.53125,1 0,0.38792 0.211256,0.73426 0.53125,1 -0.319994,0.26574 -0.53125,0.61208 -0.53125,1 0,0.38792 0.211256,0.73426 0.53125,1 -0.319994,0.26574 -0.53125,0.61208 -0.53125,1 0,0.38792 0.211256,0.73426 0.53125,1 -0.319994,0.26574 -0.53125,0.61208 -0.53125,1 0,0.38792 0.211256,0.73426 0.53125,1 -0.319994,0.26574 -0.53125,0.61208 -0.53125,1 0,0.38792 0.211256,0.73426 0.53125,1 -0.319994,0.26574 -0.53125,0.61208 -0.53125,1 0,0.831 0.892,1.5 2,1.5 l 4,0 c 1.108,0 2,-0.669 2,-1.5 0,-0.38792 -0.211256,-0.73426 -0.53125,-1 0.319994,-0.26574 0.53125,-0.61208 0.53125,-1 0,-0.38792 -0.211256,-0.73426 -0.53125,-1 0.319994,-0.26574 0.53125,-0.61208 0.53125,-1 0,-0.38792 -0.211256,-0.73426 -0.53125,-1 0.319994,-0.26574 0.53125,-0.61208 0.53125,-1 0,-0.38792 -0.211256,-0.73426 -0.53125,-1 0.319994,-0.26574 0.53125,-0.61208 0.53125,-1 0,-0.38792 -0.211256,-0.73426 -0.53125,-1 0.319994,-0.26574 0.53125,-0.61208 0.53125,-1 0,-0.38792 -0.211256,-0.73426 -0.53125,-1 0.319994,-0.26574 0.53125,-0.61208 0.53125,-1 0,-0.38792 -0.211256,-0.73426 -0.53125,-1 0.319994,-0.26574 0.53125,-0.61208 0.53125,-1 0,-0.38792 -0.211256,-0.73426 -0.53125,-1 0.319994,-0.26574 0.53125,-0.61208 0.53125,-1 0,-0.38792 -0.211256,-0.73426 -0.53125,-1 0.319994,-0.26574 0.53125,-0.61208 0.53125,-1 0,-0.38792 -0.211256,-0.73426 -0.53125,-1 0.319994,-0.26574 0.53125,-0.61208 0.53125,-1 0,-0.38792 -0.211256,-0.73426 -0.53125,-1 0.319994,-0.26574 0.53125,-0.61208 0.53125,-1 0,-0.831 -0.892,-1.5 -2,-1.5 l -4,0 z"
       id="rect3859-9"
       inkscape:export-filename="/home/thomas/Dropbox/Photos/WIPs/simplesword1.png"
       inkscape:export-xdpi="545.45453"
       inkscape:export-ydpi="545.45453" />
    <path
       style="fill:none;stroke:#212121;stroke-width:1px;stroke-linecap:butt;stroke-linejoin:miter;stroke-opacity:1"
       d="m 56,956.36218 -8,-112 16,-32 16,32 -8,112"
       id="path3885-5"
       inkscape:connector-curvature="0"
       inkscape:export-filename="/home/thomas/Dropbox/Photos/WIPs/simplesword1.png"
       inkscape:export-xdpi="545.45453"
       inkscape:export-ydpi="545.45453" />
    <path
       style="fill:none;stroke:#212121;stroke-width:1px;stroke-linecap:round;stroke-linejoin:miter;stroke-opacity:1"
       d="m 64,956.36218 0,-112"
       id="path3887-3"
       inkscape:connector-curvature="0"
       inkscape:export-filename="/home/thomas/Dropbox/Photos/WIPs/simplesword1.png"
       inkscape:export-xdpi="545.45453"
       inkscape:export-ydpi="545.45453" />
    <path
       style="fill:#000000;stroke:#000000;stroke-width:1px;stroke-linecap:butt;stroke-linejoin:miter;stroke-opacity:1;fill-opacity:1"
       d="m 60,448 8,0 3,6 -3,-1 -1,6 -1,-1 -2,6 -2,-6 -1,1 -1,-6 -3,1 z"
       id="path3167"
       inkscape:connector-curvature="0"
       transform="translate(0,540.36218)"
       sodipodi:nodetypes="cccccccccccc" />
    <path
       style="fill:#000000;stroke:#000000;stroke-width:1px;stroke-linecap:butt;stroke-linejoin:miter;stroke-opacity:1;fill-opacity:1"
       d="m 67,423 11,4 -2,-8 12,-21 -16,13 -8,-61 -8,61 -16,-11 12,19 -2,8 11,-4 z"
       id="path3937"
       inkscape:connector-curvature="0"
       transform="translate(0,540.36218)"
       sodipodi:nodetypes="cccccccccccc" />
    <path
       style="fill:#db0000;stroke:none"
       d="m 64,948.36218 -3,6 3,6 3,-6 z"
       id="path3939"
       inkscape:connector-curvature="0" />
    <path
       style="fill:#923e18;stroke:#381809;stroke-width:1.07614505px;stroke-linecap:butt;stroke-linejoin:miter;stroke-opacity:1"
       d="m 571,772.36218 10,0 -1.25,-200 -7.5,0 z"
       id="path3993-8"
       inkscape:connector-curvature="0"
       sodipodi:nodetypes="ccccc" />
    <rect
       style="fill:#757575;fill-opacity:1;stroke:#212121;stroke-width:2.50000024;stroke-linecap:round;stroke-miterlimit:4;stroke-opacity:1;stroke-dasharray:none"
       id="rect4144"
       width="80"
       height="40.000008"
       x="536"
       y="580.36218"
       rx="5"
       ry="5.000001" />
    <path
       style="fill:#eaea0e;stroke:#eaa50e;stroke-width:1px;stroke-linecap:butt;stroke-linejoin:miter;stroke-opacity:1"
       d="m 576,48 4,13 3,-9 2,9 2,-6 2,6 0,6 -26,0 0,-6 2,-6 2,6 2,-9 3,9 z"
       id="path3034"
       inkscape:connector-curvature="0"
       transform="translate(0,540.36218)"
       sodipodi:nodetypes="cccccccccccccc" />
  </g>
</svg>
